HIERARCHY
ROOT Hips
{
	OFFSET 0.000000 97.167313 0.000000
	CHANNELS 6 Xposition Yposition Zposition Xrotation Yrotation Zrotation
	JOINT Spine
	{
		OFFSET 0.000000 13.784798 0.064400
		CHANNELS 3 Xrotation Yrotation Zrotation
		JOINT Spine1
		{
			OFFSET 0.000000 12.037903 0.404700
			CHANNELS 3 Xrotation Yrotation Zrotation
			JOINT Spine2
			{
				OFFSET 0.000000 17.795601 0.420200
				CHANNELS 3 Xrotation Yrotation Zrotation
				JOINT Neck
				{
					OFFSET 0.000000 39.131302 11.954600
					CHANNELS 3 Xrotation Yrotation Zrotation
					JOINT Head
					{
						OFFSET 0.000000 14.456192 15.627699
						CHANNELS 3 Xrotation Yrotation Zrotation
						JOINT HeadTop_End
						{
							OFFSET 0.000000 15.703506 7.603401
							CHANNELS 3 Xrotation Yrotation Zrotation
							End Site
							{
								OFFSET 0.000000 17.447403 0.000000
							}
						}
					}
				}
				JOINT LeftShoulder
				{
					OFFSET 17.399500 24.608795 1.168800
					CHANNELS 3 Xrotation Yrotation Zrotation
					JOINT LeftArm
					{
						OFFSET 18.980635 5.765305 1.818600
						CHANNELS 3 Xrotation Yrotation Zrotation
						JOINT LeftForeArm
						{
							OFFSET 49.290169 0.000000 0.000000
							CHANNELS 3 Xrotation Yrotation Zrotation
							JOINT LeftHand
							{
								OFFSET 31.562012 0.000000 0.000000
								CHANNELS 3 Xrotation Yrotation Zrotation
								JOINT LeftHandThumb1
								{
									OFFSET 6.133995 -4.388519 7.076070
									CHANNELS 3 Xrotation Yrotation Zrotation
									JOINT LeftHandThumb2
									{
										OFFSET 6.037666 -3.485840 3.485847
										CHANNELS 3 Xrotation Yrotation Zrotation
										JOINT LeftHandThumb3
										{
											OFFSET 6.496506 -3.750763 3.750761
											CHANNELS 3 Xrotation Yrotation Zrotation
											JOINT LeftHandThumb4
											{
												OFFSET 5.616882 -3.242905 3.242910
												CHANNELS 3 Xrotation Yrotation Zrotation
												End Site
												{
													OFFSET -1.254608 7.132141 0.375429
												}
											}
										}
									}
								}
								JOINT LeftHandPinky1
								{
									OFFSET 18.920792 -0.453171 -11.426712
									CHANNELS 3 Xrotation Yrotation Zrotation
									JOINT LeftHandPinky2
									{
										OFFSET 4.919586 0.000000 0.000000
										CHANNELS 3 Xrotation Yrotation Zrotation
										JOINT LeftHandPinky3
										{
											OFFSET 5.233047 0.000000 0.000000
											CHANNELS 3 Xrotation Yrotation Zrotation
											JOINT LeftHandPinky4
											{
												OFFSET 5.571716 0.000000 0.000000
												CHANNELS 3 Xrotation Yrotation Zrotation
												End Site
												{
													OFFSET -3.459808 4.342407 -0.466164
												}
											}
										}
									}
								}
								JOINT LeftHandRing1
								{
									OFFSET 22.726120 -0.094986 -6.500475
									CHANNELS 3 Xrotation Yrotation Zrotation
									JOINT LeftHandRing2
									{
										OFFSET 6.408615 0.000000 0.000000
										CHANNELS 3 Xrotation Yrotation Zrotation
										JOINT LeftHandRing3
										{
											OFFSET 6.150223 0.000000 0.000000
											CHANNELS 3 Xrotation Yrotation Zrotation
											JOINT LeftHandRing4
											{
												OFFSET 6.145386 0.000000 0.000000
												CHANNELS 3 Xrotation Yrotation Zrotation
												End Site
												{
													OFFSET -3.671402 4.923981 -0.202372
												}
											}
										}
									}
								}
								JOINT LeftHandMiddle1
								{
									OFFSET 23.373947 0.000000 0.000001
									CHANNELS 3 Xrotation Yrotation Zrotation
									JOINT LeftHandMiddle2
									{
										OFFSET 6.996567 0.000000 0.000000
										CHANNELS 3 Xrotation Yrotation Zrotation
										JOINT LeftHandMiddle3
										{
											OFFSET 7.015945 0.000000 0.000000
											CHANNELS 3 Xrotation Yrotation Zrotation
											JOINT LeftHandMiddle4
											{
												OFFSET 7.721573 0.000000 0.000000
												CHANNELS 3 Xrotation Yrotation Zrotation
												End Site
												{
													OFFSET -4.651108 6.158463 0.251582
												}
											}
										}
									}
								}
								JOINT LeftHandIndex1
								{
									OFFSET 21.310577 -0.490082 6.209344
									CHANNELS 3 Xrotation Yrotation Zrotation
									JOINT LeftHandIndex2
									{
										OFFSET 7.536453 0.000000 0.000000
										CHANNELS 3 Xrotation Yrotation Zrotation
										JOINT LeftHandIndex3
										{
											OFFSET 7.512344 0.000000 0.000000
											CHANNELS 3 Xrotation Yrotation Zrotation
											JOINT LeftHandIndex4
											{
												OFFSET 10.212402 0.000000 0.000001
												CHANNELS 3 Xrotation Yrotation Zrotation
												End Site
												{
													OFFSET -5.180801 8.690506 1.388433
												}
											}
										}
									}
								}
							}
						}
					}
				}
				JOINT RightShoulder
				{
					OFFSET -17.399500 24.608795 1.168800
					CHANNELS 3 Xrotation Yrotation Zrotation
					JOINT RightArm
					{
						OFFSET -18.980635 5.765305 1.818600
						CHANNELS 3 Xrotation Yrotation Zrotation
						JOINT RightForeArm
						{
							OFFSET -49.290169 0.000000 0.000000
							CHANNELS 3 Xrotation Yrotation Zrotation
							JOINT RightHand
							{
								OFFSET -31.562012 0.000000 0.000000
								CHANNELS 3 Xrotation Yrotation Zrotation
								JOINT RightHandThumb1
								{
									OFFSET -6.133995 -4.388519 7.076070
									CHANNELS 3 Xrotation Yrotation Zrotation
									JOINT RightHandThumb2
									{
										OFFSET -6.037666 -3.485840 3.485847
										CHANNELS 3 Xrotation Yrotation Zrotation
										JOINT RightHandThumb3
										{
											OFFSET -6.496506 -3.750763 3.750761
											CHANNELS 3 Xrotation Yrotation Zrotation
											JOINT RightHandThumb4
											{
												OFFSET -5.616882 -3.242905 3.242910
												CHANNELS 3 Xrotation Yrotation Zrotation
												End Site
												{
													OFFSET 1.254608 7.132141 0.375429
												}
											}
										}
									}
								}
								JOINT RightHandIndex1
								{
									OFFSET -21.310577 -0.490082 6.209344
									CHANNELS 3 Xrotation Yrotation Zrotation
									JOINT RightHandIndex2
									{
										OFFSET -7.536453 0.000000 0.000000
										CHANNELS 3 Xrotation Yrotation Zrotation
										JOINT RightHandIndex3
										{
											OFFSET -7.512344 0.000000 0.000000
											CHANNELS 3 Xrotation Yrotation Zrotation
											JOINT RightHandIndex4
											{
												OFFSET -10.212402 0.000000 0.000001
												CHANNELS 3 Xrotation Yrotation Zrotation
												End Site
												{
													OFFSET 5.180801 8.690506 1.388433
												}
											}
										}
									}
								}
								JOINT RightHandMiddle1
								{
									OFFSET -23.373947 0.000000 0.000001
									CHANNELS 3 Xrotation Yrotation Zrotation
									JOINT RightHandMiddle2
									{
										OFFSET -6.996567 0.000000 0.000000
										CHANNELS 3 Xrotation Yrotation Zrotation
										JOINT RightHandMiddle3
										{
											OFFSET -7.015945 0.000000 0.000000
											CHANNELS 3 Xrotation Yrotation Zrotation
											JOINT RightHandMiddle4
											{
												OFFSET -7.721573 0.000000 0.000000
												CHANNELS 3 Xrotation Yrotation Zrotation
												End Site
												{
													OFFSET 4.651108 6.158463 0.251582
												}
											}
										}
									}
								}
								JOINT RightHandRing1
								{
									OFFSET -22.726120 -0.094986 -6.500475
									CHANNELS 3 Xrotation Yrotation Zrotation
									JOINT RightHandRing2
									{
										OFFSET -6.408615 0.000000 0.000000
										CHANNELS 3 Xrotation Yrotation Zrotation
										JOINT RightHandRing3
										{
											OFFSET -6.150223 0.000000 0.000000
											CHANNELS 3 Xrotation Yrotation Zrotation
											JOINT RightHandRing4
											{
												OFFSET -6.145386 0.000000 0.000000
												CHANNELS 3 Xrotation Yrotation Zrotation
												End Site
												{
													OFFSET 3.671402 4.923981 -0.202372
												}
											}
										}
									}
								}
								JOINT RightHandPinky1
								{
									OFFSET -18.920792 -0.453171 -11.426712
									CHANNELS 3 Xrotation Yrotation Zrotation
									JOINT RightHandPinky2
									{
										OFFSET -4.919586 0.000000 0.000000
										CHANNELS 3 Xrotation Yrotation Zrotation
										JOINT RightHandPinky3
										{
											OFFSET -5.233047 0.000000 0.000000
											CHANNELS 3 Xrotation Yrotation Zrotation
											JOINT RightHandPinky4
											{
												OFFSET -5.571716 0.000000 0.000000
												CHANNELS 3 Xrotation Yrotation Zrotation
												End Site
												{
													OFFSET 3.459808 4.342407 -0.466164
												}
											}
										}
									}
								}
							}
						}
					}
				}
			}
		}
	}
	JOINT LeftUpLeg
	{
		OFFSET 19.899099 -7.885101 -3.429500
		CHANNELS 3 Xrotation Yrotation Zrotation
		JOINT LeftLeg
		{
			OFFSET 1.745560 -36.997807 10.304700
			CHANNELS 3 Xrotation Yrotation Zrotation
			JOINT LeftFoot
			{
				OFFSET -1.745558 -29.803308 -13.615400
				CHANNELS 3 Xrotation Yrotation Zrotation
				JOINT LeftToeBase
				{
					OFFSET 1.181900 -18.539904 15.226099
					CHANNELS 3 Xrotation Yrotation Zrotation
					JOINT LeftToe_End
					{
						OFFSET -0.863701 1.402801 16.534700
						CHANNELS 3 Xrotation Yrotation Zrotation
						End Site
						{
							OFFSET 0.000000 16.616566 0.000000
						}
					}
				}
			}
		}
	}
	JOINT RightUpLeg
	{
		OFFSET -19.899099 -7.885101 -3.429500
		CHANNELS 3 Xrotation Yrotation Zrotation
		JOINT RightLeg
		{
			OFFSET -1.745560 -36.997807 10.304700
			CHANNELS 3 Xrotation Yrotation Zrotation
			JOINT RightFoot
			{
				OFFSET 1.745558 -29.803308 -13.615400
				CHANNELS 3 Xrotation Yrotation Zrotation
				JOINT RightToeBase
				{
					OFFSET -1.181900 -18.539904 15.226099
					CHANNELS 3 Xrotation Yrotation Zrotation
					JOINT RightToe_End
					{
						OFFSET 0.863701 1.402801 16.534700
						CHANNELS 3 Xrotation Yrotation Zrotation
						End Site
						{
							OFFSET 0.000000 16.616566 0.000000
						}
					}
				}
			}
		}
	}
}
MOTION
Frames: 4
Frame Time: 0.033333
-1.612717 78.616936 7.207077 -2.695258 -61.863960 1.297488 11.532296 0.153991 -2.874810 9.338136 -0.085675 -6.174310 7.145874 -0.090066 -6.172744 -14.669831 -13.926558 -1.043974 20.027206 -24.679236 5.373403 -0.000000 -0.000000 0.000001 -5.851835 -17.351880 -6.567150 -20.868272 -7.177602 -41.604451 -97.390465 -16.622488 -96.631372 -19.687177 1.316422 -1.614708 -0.091690 -0.562824 11.138227 1.719388 18.156955 -2.774398 0.323601 -0.637973 1.698487 -0.000000 0.000001 -0.000002 -5.417070 7.581363 -11.735936 0.216136 0.269527 -44.436664 0.251348 0.243107 -44.135200 -0.000000 0.000000 -0.000002 6.172952 3.065000 -12.667855 0.031061 0.299467 -26.580813 0.392493 0.796206 -38.595804 0.000001 0.000000 0.000005 8.550271 -0.382481 4.991463 0.219541 0.631296 -23.994974 0.423271 0.183068 -38.450140 -0.000000 -0.000002 0.000004 13.213528 -0.977512 19.836133 -0.177252 0.296727 -21.950838 -0.138327 0.293734 -23.101534 -0.000001 0.000003 0.000002 -9.567676 17.896885 21.269532 -36.265296 -9.792815 44.852746 -245.840256 111.760391 230.383647 -51.337440 12.129311 -25.849240 0.205714 10.441886 -10.739474 0.540114 -15.158268 3.957452 2.206627 -7.220418 -5.574575 -0.000000 0.000002 0.000004 19.220463 11.008376 -17.753774 -0.127055 -0.329468 16.885363 -0.106814 -0.287330 15.516633 0.000001 0.000003 -0.000001 4.440322 2.492345 -12.694275 0.324713 -0.429727 19.011155 0.434443 0.190660 29.524975 0.000000 0.000001 -0.000001 -6.962540 -10.617806 -3.769122 0.102030 -0.029149 16.660262 0.412985 -0.426785 23.670174 0.000001 -0.000000 0.000000 -19.393311 -20.193243 -3.381339 0.195998 -0.047646 27.466619 0.233257 -0.014904 27.093711 -0.000001 -0.000001 0.000004 -25.954743 7.936355 21.632428 45.846214 -2.476456 -4.771468 -16.890079 0.491281 -14.279845 -0.305691 1.238686 0.797239 0.000000 0.000002 0.000000 -9.683525 11.980027 -35.599212 36.729793 3.862260 4.065546 -16.870403 -13.108451 29.477799 -0.396841 -0.990550 -0.895016 0.000000 0.000002 -0.000000 
-1.429438 78.601624 7.568640 -2.751287 -61.840143 1.158800 11.576617 0.235395 -2.847258 9.385294 0.062636 -6.160704 7.193201 0.061435 -6.160291 -14.491669 -14.046391 -0.485478 19.981584 -24.703456 5.510910 -0.000000 0.000000 0.000002 -5.792336 -17.387295 -6.409327 -21.071284 -6.799481 -41.606203 -97.450025 -16.846407 -95.853925 -19.470591 0.679926 -1.027600 -0.200711 -1.421044 10.834765 1.435053 17.369758 -3.090590 0.108934 -1.446123 1.299208 -0.000000 0.000001 -0.000002 -5.404298 7.574844 -10.811389 0.212657 0.266415 -43.511761 0.247430 0.240652 -43.210311 0.000001 -0.000000 -0.000004 6.179825 3.055006 -11.725063 0.028556 0.293191 -25.637702 0.388797 0.791497 -37.652647 -0.000004 -0.000000 0.000005 8.560584 -0.389977 5.930255 0.217478 0.626499 -23.056145 0.420123 0.179602 -37.511413 0.000001 -0.000000 0.000004 13.211580 -0.976185 20.657497 -0.178010 0.296007 -21.129236 -0.138781 0.293356 -22.279930 0.000004 0.000001 0.000001 -9.660827 17.892509 21.549167 -33.994316 -7.468953 46.678107 -246.469070 112.705826 230.152240 -50.501251 11.691876 -27.872460 0.191937 10.553394 -10.698184 0.050384 -13.873890 4.494296 2.118849 -6.643500 -5.305851 0.000001 0.000000 -0.000003 19.257377 11.049462 -19.209315 -0.129143 -0.327303 14.518684 -0.107872 -0.286637 14.972067 -0.000002 -0.000003 -0.000002 4.438852 2.506059 -13.531268 0.322207 -0.425042 18.174333 0.433752 0.190560 29.459316 -0.000001 0.000003 -0.000003 -6.971362 -10.620852 -3.926888 0.101751 -0.028224 16.502470 0.412734 -0.426533 23.611436 0.000001 0.000000 -0.000005 -19.360093 -20.173864 -2.913735 0.197197 -0.049619 27.930923 0.234452 -0.016651 27.558061 -0.000000 0.000001 0.000007 -25.939501 7.768503 21.453703 46.220392 -2.327295 -5.027624 -17.229702 0.449600 -13.903980 -0.302573 1.238754 0.791528 -0.000000 -0.000001 -0.000000 -9.049828 12.297803 -35.967465 36.122579 3.614436 4.313063 -16.507543 -13.323792 29.857250 -0.403494 -0.990307 -0.894660 -0.000000 0.000001 -0.000000 
-1.246725 78.592621 7.924202 -2.810040 -61.814721 1.015447 11.621000 0.312581 -2.821820 9.436852 0.221383 -6.162252 7.244062 0.222125 -6.163368 -14.408909 -14.021744 0.091654 19.862665 -24.520697 5.596972 0.000003 0.000000 0.000000 -5.740635 -17.425520 -6.282157 -21.234679 -6.369440 -41.552808 -97.573268 -17.081241 -94.959485 -19.165915 -0.062073 -0.370461 -0.314533 -2.291746 10.525248 1.143037 16.572093 -3.414161 -0.115941 -2.264255 0.890143 0.000000 0.000001 -0.000001 -5.397335 7.569417 -9.872626 0.209232 0.263184 -42.572924 0.244178 0.238031 -42.271488 0.000000 0.000001 -0.000000 6.186409 3.045626 -10.778907 0.026173 0.286938 -24.691069 0.385290 0.786685 -36.705963 -0.000003 -0.000002 -0.000000 8.570731 -0.397072 6.855140 0.215501 0.621941 -22.131252 0.417208 0.176161 -36.586468 -0.000000 0.000000 0.000004 13.211093 -0.974838 21.443826 -0.178785 0.295391 -20.342636 -0.139136 0.292962 -21.493354 -0.000001 0.000001 -0.000001 -9.704951 17.895845 21.775476 -31.819338 -4.942152 48.528573 -247.609357 113.395668 230.586312 -49.365872 10.809789 -29.700343 0.179595 10.652899 -10.661365 -0.407828 -12.698116 4.994160 2.038239 -6.123095 -5.062955 0.000003 0.000001 -0.000001 19.297033 11.088985 -20.477083 -0.130905 -0.325310 12.457687 -0.108758 -0.286017 14.504866 -0.000002 0.000000 0.000002 4.437474 2.512924 -14.120178 0.320571 -0.421648 17.585896 0.433118 0.190381 29.415883 -0.000002 0.000003 -0.000008 -6.966039 -10.619231 -3.802532 0.101417 -0.029084 16.626953 0.413524 -0.427052 23.735911 -0.000001 0.000003 -0.000003 -19.316210 -20.147615 -2.249120 0.198953 -0.052462 28.591158 0.236321 -0.019115 28.218249 -0.000002 -0.000001 0.000000 -25.907881 7.572013 21.265493 46.574968 -2.154905 -5.276769 -17.555642 0.417657 -13.553103 -0.299721 1.238759 0.786344 -0.000000 -0.000001 -0.000000 -8.410879 12.603025 -36.320986 35.506598 3.335284 4.533534 -16.132751 -13.521656 30.249634 -0.409520 -0.990261 -0.894680 -0.000000 -0.000000 -0.000000 
-1.061891 78.588501 8.252298 -2.871264 -61.787770 0.868831 11.664604 0.388869 -2.805644 9.493426 0.375421 -6.175056 7.298947 0.379658 -6.177642 -14.422569 -13.818528 0.678079 19.669388 -24.120306 5.621471 0.000002 -0.000001 0.000001 -5.692968 -17.452938 -6.166863 -21.392306 -5.883716 -41.385714 -97.764862 -17.272531 -93.909056 -18.823721 -0.837213 0.337174 -0.432519 -3.168513 10.211789 0.845461 15.769969 -3.742842 -0.348713 -3.086773 0.474539 0.000003 -0.000000 0.000000 -5.392253 7.565149 -8.927211 0.205785 0.259882 -41.627189 0.241156 0.235263 -41.325759 0.000000 -0.000000 -0.000000 6.192139 3.036864 -9.836177 0.023848 0.280735 -23.747885 0.381911 0.781827 -35.762761 0.000002 -0.000003 -0.000000 8.580810 -0.403781 7.759162 0.213698 0.617371 -21.227236 0.414758 0.172738 -35.682414 -0.000001 -0.000001 0.000009 13.212336 -0.973515 22.189138 -0.179553 0.294754 -19.597119 -0.139665 0.292578 -20.747850 -0.000002 0.000001 0.000001 -9.696165 17.927570 21.961935 -29.922618 -2.055185 50.424862 -248.665604 113.980605 231.099232 -48.027168 9.611358 -31.172304 0.168933 10.739089 -10.629450 -0.821990 -11.656107 5.444247 1.966435 -5.667863 -4.850161 -0.000001 0.000001 -0.000005 19.335116 11.124124 -21.522744 -0.132262 -0.323612 10.757907 -0.109482 -0.285486 14.124735 -0.000001 0.000000 0.000002 4.439638 2.516300 -14.429587 0.319782 -0.419694 17.276767 0.432468 0.189981 29.394289 -0.000003 -0.000000 -0.000001 -6.951177 -10.612840 -3.445208 0.101119 -0.031319 16.984099 0.415655 -0.428636 24.093076 0.000000 -0.000000 -0.000003 -19.266536 -20.116859 -1.412341 0.201258 -0.055942 29.422823 0.238725 -0.022198 29.049901 -0.000000 -0.000000 0.000002 -25.879935 7.360745 21.092881 46.899518 -1.973887 -5.516417 -17.842916 0.384509 -13.245846 -0.297026 1.238780 0.781441 0.000000 0.000001 0.000000 -7.844307 12.834576 -36.669756 34.906536 3.064504 4.759434 -15.752296 -13.633071 30.604090 -0.415447 -0.990191 -0.894745 -0.000000 0.000000 0.000000 
